<svg width="49" height="48" viewBox="0 0 49 48" fill="none" xmlns="http://www.w3.org/2000/svg">
<path d="M20.4688 0.56857C21.0838 0.216888 21.8391 0.216887 22.4542 0.56857L38.6073 9.80431C39.2302 10.1605 39.6146 10.823 39.6146 11.5405V29.9784C39.6146 30.696 39.2302 31.3585 38.6073 31.7147L22.4542 40.9504C21.8391 41.3021 21.0838 41.3021 20.4688 40.9504L4.31559 31.7147C3.69269 31.3585 3.3083 30.696 3.3083 29.9784V11.5405C3.3083 10.823 3.69269 10.1605 4.31559 9.80431L20.4688 0.56857Z" fill="#8D66FF"/>
<path d="M32.0323 17.9183C32.6474 17.5666 33.4026 17.5666 34.0177 17.9183L45.4194 24.4373C46.0423 24.7935 46.4267 25.456 46.4267 26.1736V39.1781C46.4267 39.8956 46.0423 40.5581 45.4194 40.9143L34.0177 47.4333C33.4026 47.785 32.6474 47.785 32.0323 47.4333L20.6306 40.9143C20.0077 40.5581 19.6233 39.8956 19.6233 39.1781V26.1736C19.6233 25.456 20.0077 24.7935 20.6306 24.4373L32.0323 17.9183Z" fill="#3D34FF"/>
<path fill-rule="evenodd" clip-rule="evenodd" d="M39.6146 21.1184V29.9784C39.6146 30.696 39.2302 31.3585 38.6073 31.7147L22.4542 40.9504C22.0369 41.189 21.5551 41.2657 21.0963 41.1806L20.6306 40.9143C20.0077 40.5581 19.6233 39.8956 19.6233 39.1781V26.1736C19.6233 25.456 20.0077 24.7935 20.6306 24.4373L32.0323 17.9183C32.6474 17.5666 33.4026 17.5666 34.0177 17.9183L39.6146 21.1184Z" fill="#CD85FF"/>
</svg>
